<svg
   xmlns="http://www.w3.org/2000/svg"
   viewBox="-11.493675 -16.3118 43.962387 64.788801"
   width="36"
   height="36">
  <path fill="currentColor"
     d="m 33.29702,38.892621 h -9.6 v -15.034 c 0,-3.585 -0.064,-8.2 -4.993,-8.2 -5,0 -5.765,3.906 -5.765,7.939 v 15.294 H 3.3390204 V 7.9756202 H 12.55502 v 4.2250008 h 0.129 c 1.879195,-3.2130478 5.373325,-5.1320718 9.093,-4.9940008 9.73,0 11.524,6.4000008 11.524,14.7260008 z M -7.4929796,3.7496202 c -4.9635764,8.91e-4 -7.4495224,-5.999402 -3.9407994,-9.509385 3.5087234,-3.5099823 9.5099084,-1.026191 9.5107994,3.937385 5.52e-4,3.076778 -2.493222,5.571448 -5.57,5.572 m 4.8,35.1430008 H -12.30298 V 7.9756202 h 9.6100004 z m 40.7759996,-55.2 h -55.21 c -2.609339,-0.02945 -4.749154,2.060689 -4.781,4.67 v 55.439 c 0.03076,2.610568 2.170399,4.702773 4.781,4.675 h 55.21 c 2.615766,0.03281 4.763788,-2.059279 4.8,-4.675 v -55.443 c -0.0373,-2.614466 -2.185496,-4.704482 -4.8,-4.67" />
</svg>
